<?xml version="1.0" standalone="no"?>
<!DOCTYPE svg PUBLIC "-//W3C//DTD SVG 20010904//EN"
 "http://www.w3.org/TR/2001/REC-SVG-20010904/DTD/svg10.dtd">
<svg version="1.0" xmlns="http://www.w3.org/2000/svg"
 width="260.000000pt" height="260.000000pt" viewBox="0 0 260.000000 260.000000"
 preserveAspectRatio="xMidYMid meet">
<metadata>
Created by potrace 1.14, written by Peter Selinger 2001-2017
</metadata>
<g transform="translate(0.000000,260.000000) scale(0.100000,-0.100000)"
fill="#000000" stroke="none">
<path d="M1292 2438 c-4 -3 -20 -9 -37 -12 -51 -9 -75 -18 -75 -29 0 -6 -3 -8
-6 -4 -6 6 -64 -23 -118 -58 -13 -9 -31 -13 -40 -9 -9 3 -16 1 -16 -4 0 -6 -9
-9 -20 -7 -11 2 -20 0 -20 -6 0 -5 -3 -8 -7 -8 -20 3 -34 -4 -72 -35 -22 -18
-37 -36 -34 -40 4 -3 1 -6 -6 -6 -7 0 -9 -4 -6 -10 3 -5 1 -10 -4 -10 -6 0
-10 -3 -9 -7 0 -5 -1 -15 -5 -23 -3 -8 -8 -44 -12 -80 -3 -36 -6 -71 -7 -77
-1 -7 -5 -13 -9 -13 -8 0 -22 -38 -22 -62 0 -10 -3 -18 -7 -18 -8 0 -34 -51
-32 -63 1 -4 -4 -23 -12 -42 -8 -19 -12 -35 -8 -35 4 0 2 -4 -4 -8 -18 -13
-70 -96 -69 -112 1 -8 -3 -20 -8 -27 -5 -7 -6 -17 -2 -23 3 -5 2 -10 -4 -10
-5 0 -15 -17 -22 -37 -6 -21 -14 -42 -16 -46 -6 -10 -15 -150 -13 -182 1 -11
2 -30 3 -42 0 -13 4 -23 8 -23 4 0 4 -12 0 -27 -5 -16 -6 -37 -4 -48 2 -11 6
-38 9 -60 3 -22 12 -61 19 -87 7 -25 11 -49 8 -52 -3 -3 1 -16 9 -28 8 -13 14
-31 12 -40 -1 -10 2 -18 8 -18 6 0 8 -6 5 -14 -5 -13 46 -135 62 -146 12 -8
71 -98 71 -108 0 -5 20 -31 45 -58 25 -26 45 -50 45 -52 0 -2 16 -20 36 -40
20 -20 43 -47 51 -59 9 -13 22 -23 29 -23 8 0 14 -4 14 -9 0 -4 20 -24 45 -43
24 -19 42 -37 40 -40 -13 -12 207 -108 248 -108 7 0 29 -9 50 -20 20 -11 43
-20 51 -20 8 0 31 -15 50 -34 20 -18 38 -31 41 -28 3 3 5 0 5 -6 0 -7 5 -12
10 -12 6 0 24 -10 41 -22 17 -13 45 -22 66 -23 48 0 74 39 68 102 -3 24 -2 42
3 40 4 -3 8 5 9 16 4 41 23 97 33 97 11 0 39 70 42 108 1 6 5 12 10 12 5 0 6
5 3 10 -3 6 -2 10 3 10 10 0 37 50 34 63 -2 5 4 23 12 40 8 18 22 59 32 92 9
33 21 66 26 73 6 6 7 12 3 12 -4 0 -3 6 2 13 6 6 9 21 7 32 -1 10 1 24 7 31 5
6 11 37 13 68 3 31 8 61 11 67 15 24 24 280 12 324 -5 17 -8 45 -8 63 0 18 -5
45 -11 60 -6 15 -10 32 -9 39 1 7 -7 30 -18 51 -11 21 -22 55 -26 75 -4 21
-13 43 -19 50 -10 11 -38 64 -41 77 -2 13 -76 119 -106 153 -65 75 -134 138
-189 175 -30 20 -57 39 -60 42 -3 3 -31 21 -62 40 -32 19 -58 37 -58 41 0 4
26 10 57 14 31 4 68 12 82 18 14 5 30 9 35 8 4 -1 14 3 20 8 7 6 21 12 32 14
34 7 108 45 143 74 l34 29 -17 32 c-13 25 -27 35 -61 44 -25 7 -45 16 -45 20
0 5 -12 8 -27 7 -16 -1 -45 7 -66 19 -20 12 -39 21 -42 21 -3 -1 -27 2 -53 7
-60 10 -161 11 -170 2z"/>
</g>
</svg>
